<svg xmlns="http://www.w3.org/2000/svg" width="470" height="104.961" viewBox="0 0 470 104.961">
  <g id="Group_13" data-name="Group 13" transform="translate(0 36.384)">
    <g id="Group_3" data-name="Group 3">
      <text id="Hinsei_LSA" data-name="Hinsei LSA" transform="translate(0 56.131)" fill="#707070" font-size="35" font-family="Arial-BoldMT, Arial" font-weight="700"><tspan x="0" y="0">Hinsei LSA</tspan></text>
      <g id="Group_2" data-name="Group 2" transform="matrix(0.999, -0.035, 0.035, 0.999, 164.415, -37.216)">
        <g id="Group_1" data-name="Group 1" transform="translate(0 4.119)">
          <path id="Path_1" data-name="Path 1" d="M13.969-.111l56.525,7.52L-.239,31.9Z" transform="translate(32.18 28.202) rotate(83)" fill="#fff175"/>
          <g id="Path_5" data-name="Path 5" transform="translate(0 31.852) rotate(-45)" fill="none">
            <path d="M0,0,30.9,16.228,48.015,48.015,16.586,31.382Z" stroke="none"/>
            <path d="M 0.7175788879394531 0.7156753540039062 L 16.80827140808105 31.15959930419922 L 47.282958984375 47.28813552856445 L 30.68162155151367 16.45095825195312 L 0.7175788879394531 0.7156753540039062 M 0 0 L 30.90229797363281 16.22799873352051 L 48.01495742797852 48.01495742797852 L 16.58623886108398 31.38150787353516 L 0 0 Z" stroke="none" fill="#fff175"/>
          </g>
        </g>
        <g id="Path_6" data-name="Path 6" transform="translate(67.226 36.046) rotate(83)" fill="none">
          <path d="M5.655,34.788l55.63,6.83L0,0Z" stroke="none"/>
          <path d="M 60.08937835693359 41.16980361938477 L 0.4079058766365051 0.6396446824073792 L 5.914634704589844 34.51797103881836 L 60.08937835693359 41.16980361938477 M 61.28452301025391 41.61879730224609 L 5.654641628265381 34.78829574584961 L 1.505126988377015e-06 -3.256225681980141e-06 L 61.28452301025391 41.61879730224609 Z" stroke="none" fill="#fff175"/>
        </g>
      </g>
      <text id="Agreement_List" data-name="Agreement List" transform="translate(215 56.131)" fill="#707070" font-size="35" font-family="Arial-BoldMT, Arial" font-weight="700"><tspan x="0" y="0">Agreement List</tspan></text>
    </g>
  </g>
</svg>
